<?xml version="1.0" encoding="utf-8"?>
<!-- Generator: Adobe Illustrator 15.0.2, SVG Export Plug-In . SVG Version: 6.00 Build 0)  -->
<!DOCTYPE svg PUBLIC "-//W3C//DTD SVG 1.1//EN" "http://www.w3.org/Graphics/SVG/1.1/DTD/svg11.dtd">
<svg version="1.1" id="Layer_1" xmlns="http://www.w3.org/2000/svg" xmlns:xlink="http://www.w3.org/1999/xlink" x="0px" y="0px"
	 width="511.911px" height="352.354px" viewBox="0 0 511.911 352.354" enable-background="new 0 0 511.911 352.354"
	 xml:space="preserve">
<path fill="#F7941E" d="M413.297,200.554c28.811,0,52.078-23.822,52.078-52.632c0-29.362-23.268-52.631-52.078-52.631
	c-28.809,0-52.076,23.822-52.076,52.631C361.221,176.731,382.274,200.554,413.297,200.554z M383.936,299.723
	c-34.904,0-53.74-8.864-69.809-17.175c-15.512-7.756-29.361-14.404-58.172-14.404c-28.809,0-42.104,6.648-58.172,14.404
	c-16.064,7.757-34.902,17.175-69.805,17.175c-34.904,0-53.74-8.864-69.809-17.175c-14.402-7.202-27.145-13.296-52.076-14.404
	c-3.324,0-6.094-2.771-6.094-6.095v-14.403c0-3.324,2.77-6.095,6.646-6.095c31.025,1.108,48.201,9.418,63.158,16.62
	c15.514,7.757,29.361,14.405,58.172,14.405c28.809,0,42.104-6.648,58.172-14.405c16.066-7.756,34.902-17.175,69.807-17.175
	s53.74,8.864,69.807,17.175c15.512,7.757,29.361,14.405,58.172,14.405c28.809,0,42.104-6.648,58.172-14.405
	c15.512-7.202,32.133-16.066,63.158-16.62c3.322,0,6.646,2.771,6.646,6.095v14.403c0,3.324-2.77,6.095-6.094,6.095
	c-24.932,1.108-37.674,7.202-52.078,14.404C437.676,290.305,418.838,299.723,383.936,299.723z M206.649,67.59
	c-8.311-19.944,6.096-36.012,17.176-38.781L380.057,0c1.107,0,2.217,0,3.322,0C400,0,413.297,13.296,413.297,29.916
	c0,14.959-10.525,27.147-25.484,29.917L286.983,78.67l89.75,161.219c-23.27-1.106-36.012-7.202-49.861-13.851
	c-16.066-7.756-34.902-17.176-69.807-17.176s-53.738,8.865-69.807,17.176c-15.514,7.757-29.361,14.404-58.172,14.404
	c-14.404,0-24.932-1.662-33.795-4.433l126.869-75.347l27.146-14.958l-40.996-74.238C207.758,69.806,207.204,68.697,206.649,67.59z
	 M383.936,352.354c-34.904,0-53.74-8.863-69.809-17.175c-15.512-7.756-29.361-14.404-58.172-14.404
	c-28.809,0-42.104,6.648-58.172,14.404c-16.066,7.756-34.902,17.175-69.805,17.175c-34.904,0-53.74-8.863-69.809-17.175
	c-14.402-7.202-27.145-13.297-52.076-14.404c-3.324,0-6.094-2.771-6.094-6.095v-14.403c0-3.324,2.77-6.095,6.646-6.095
	c31.025,1.108,48.201,9.418,63.158,16.62c15.514,7.756,29.361,14.404,58.172,14.404c28.809,0,42.104-6.648,58.172-14.404
	c16.066-7.756,34.902-17.175,69.807-17.175s53.74,8.864,69.807,17.175c15.512,7.756,29.361,14.404,58.172,14.404
	c28.809,0,42.104-6.648,58.172-14.404c15.512-7.202,32.133-16.065,63.158-16.62c3.322,0,6.646,2.771,6.646,6.095v14.403
	c0,3.324-2.77,6.095-6.094,6.095c-24.932,1.107-37.674,7.202-52.078,14.404C437.676,343.49,418.838,352.354,383.936,352.354z"/>
<text transform="matrix(1 0 0 1 472.9927 807.9023)" font-family="'HelveticaNeue-Bold'" font-size="27.7008">Created by Gabe Herrera</text>
<text transform="matrix(1 0 0 1 472.9927 835.6016)" font-family="'HelveticaNeue-Bold'" font-size="27.7008">from the Noun Project</text>
</svg>
