<?xml version="1.0" encoding="utf-8"?>
<!-- Generator: Adobe Illustrator 15.0.2, SVG Export Plug-In . SVG Version: 6.00 Build 0)  -->
<!DOCTYPE svg PUBLIC "-//W3C//DTD SVG 1.1//EN" "http://www.w3.org/Graphics/SVG/1.1/DTD/svg11.dtd">
<svg version="1.1" id="Layer_1" xmlns="http://www.w3.org/2000/svg" xmlns:xlink="http://www.w3.org/1999/xlink" x="0px" y="0px"
	 width="232.23px" height="361.391px" viewBox="843.886 19.258 232.23 361.391"
	 enable-background="new 843.886 19.258 232.23 361.391" xml:space="preserve">
<path fill="#F7941E" d="M961.889,19.258c-103.227,125.854-122,206.205-117.364,253.578c4.187,60.222,54.231,107.812,115.524,107.812
	c62.444,0,113.218-49.413,115.689-111.262C1083.746,165.106,961.889,19.258,961.889,19.258z M1030.547,194.093l-18.427,18.427
	l-9.143-25.6l-15.547,6.4l-17.368-20.115L960,147.604l-14.631,43.889l-12.801-21.026l-14.631,32l-11.884-10.054l-20.485,12.521
	c11.147-33.987,33.773-77.36,75.796-131.845C961.364,73.08,1007.235,131.489,1030.547,194.093z"/>
<text transform="matrix(1 0 0 1 826.666 466.668)" font-family="'HelveticaNeue-Bold'" font-size="22.2222">Created by Jonathan Li</text>
<text transform="matrix(1 0 0 1 826.666 488.8906)" font-family="'HelveticaNeue-Bold'" font-size="22.2222">from the Noun Project</text>
</svg>
