<?xml version="1.0" encoding="utf-8"?>
<!-- Generator: Adobe Illustrator 15.0.2, SVG Export Plug-In . SVG Version: 6.00 Build 0)  -->
<!DOCTYPE svg PUBLIC "-//W3C//DTD SVG 1.1//EN" "http://www.w3.org/Graphics/SVG/1.1/DTD/svg11.dtd">
<svg version="1.1" id="Layer_1" xmlns="http://www.w3.org/2000/svg" xmlns:xlink="http://www.w3.org/1999/xlink" x="0px" y="0px"
	 width="218.96px" height="347.997px" viewBox="852 24.003 218.96 347.997" enable-background="new 852 24.003 218.96 347.997"
	 xml:space="preserve">
<path fill="#F7941E" d="M988.564,178.18c6.056-21.772,13.804-48.264,4.407-70.484c-8.916-21.068-39.02-22.532-55.943-19.436
	c-32.269,5.936-76.96,36.548-71.393,80.968c3.996,31.912,31.353,68.752,30.425,97.047c-0.801,24.113-14.948,50.477-7.841,74.196
	c9.832,32.796,57.868,43.761,76.284,14.716c25.688-40.523,1.608-93.672,7.244-138.604
	C973.28,204.396,985.312,189.848,988.564,178.18z M916.736,191.764c-11.952-3.54-46.44-18.68-7.364-68.988
	c21.14,14.336,29.28,26.952,30.784,37.384c-10.101,3.62-17.064,10.656-16.192,23.388c-5.504-13.092-9.828-31.2-11.684-42.492
	C911.348,154.248,913.296,177.704,916.736,191.764z M935.988,198.992c4.111-8.012,9.412-15.236,16.115-21.34
	c-8.228,4.552-15.543,10.328-21.836,17.276c-2.916-8.084-8.96-34.384,36.213-32.936C967.796,203.3,945.92,201.776,935.988,198.992z"
	/>
<path fill="#F7941E" d="M976.508,76.292c11.264,0.676,21.04-10.468,21.828-24.896c0.796-14.428-7.696-26.676-18.944-27.364
	c-11.275-0.676-21.048,10.468-21.844,24.904C956.756,63.364,965.248,75.6,976.508,76.292z"/>
<path fill="#F7941E" d="M936.192,73.132c7.84,0.464,14.647-7.296,15.204-17.348c0.548-10.052-5.372-18.584-13.213-19.056
	c-7.844-0.472-14.651,7.288-15.203,17.348C922.432,64.112,928.355,72.656,936.192,73.132z"/>
<path fill="#F7941E" d="M905.276,83.836c7.252,0.436,13.54-6.728,14.052-16.012c0.516-9.28-4.944-17.168-12.196-17.616
	c-7.256-0.432-13.544,6.756-14.048,16.032C892.564,75.528,898.028,83.412,905.276,83.836z"/>
<path fill="#F7941E" d="M882.632,98.308c5.924-0.46,10.284-6.984,9.736-14.576c-0.544-7.58-5.784-13.376-11.712-12.904
	c-5.92,0.48-10.272,7.008-9.729,14.6C871.452,92.992,876.692,98.776,882.632,98.308z"/>
<path fill="#F7941E" d="M864.968,116.756c5.437-1.304,8.632-8,7.116-14.952c-1.508-6.98-7.152-11.596-12.588-10.292
	c-5.448,1.288-8.632,7.988-7.12,14.964C853.888,113.436,859.516,118.048,864.968,116.756z"/>
<path fill="#F7941E" d="M1040.04,234.152l30.92-30.928c0.853-0.848,1.296-1.98,1.296-3.124c0-0.568-0.107-1.148-0.336-1.692
	c-0.688-1.648-2.296-2.724-4.08-2.724h-22.092V98.468c0-2.44-1.984-4.42-4.42-4.42h-8.836c-2.452,0-4.42,1.98-4.42,4.42v97.212
	h-22.084c-1.796,0-3.4,1.076-4.092,2.724c-0.236,0.544-0.336,1.124-0.336,1.692c0,1.144,0.443,2.276,1.295,3.124l30.937,30.928
	C1035.508,235.88,1038.304,235.88,1040.04,234.152z"/>
<text transform="matrix(1 0 0 1 760 460)" font-family="'HelveticaNeue-Bold'" font-size="20">Created by Kelcey Hurst</text>
<text transform="matrix(1 0 0 1 760 480)" font-family="'HelveticaNeue-Bold'" font-size="20">from the Noun Project</text>
</svg>
